{
	"asset":{
		"generator":"Khronos glTF Blender I/O v4.2.70",
		"version":"2.0"
	},
	"extensionsUsed":[
		"KHR_materials_specular"
	],
	"scene":0,
	"scenes":[
		{
			"name":"Scene",
			"nodes":[
				2
			]
		}
	],
	"nodes":[
		{
			"mesh":0,
			"name":"AW101_backrotor",
			"translation":[
				0.5339938998222351,
				-8.863543510437012,
				-2.135714530944824
			]
		},
		{
			"mesh":1,
			"name":"AW101_propellar",
			"translation":[
				0.03442094475030899,
				3.215367317199707,
				-2.5338354110717773
			]
		},
		{
			"children":[
				0,
				1
			],
			"mesh":2,
			"name":"AW101",
			"rotation":[
				0.70710688829422,
				0,
				0,
				0.7071066498756409
			],
			"scale":[
				0.0917738527059555,
				0.0917738527059555,
				0.0917738527059555
			],
			"translation":[
				0,
				0.3210781216621399,
				0
			]
		}
	],
	"animations":[
		{
			"channels":[
				{
					"sampler":0,
					"target":{
						"node":2,
						"path":"translation"
					}
				},
				{
					"sampler":1,
					"target":{
						"node":2,
						"path":"rotation"
					}
				},
				{
					"sampler":2,
					"target":{
						"node":2,
						"path":"scale"
					}
				}
			],
			"name":"AW101Action",
			"samplers":[
				{
					"input":16,
					"interpolation":"LINEAR",
					"output":17
				},
				{
					"input":16,
					"interpolation":"LINEAR",
					"output":18
				},
				{
					"input":19,
					"interpolation":"STEP",
					"output":20
				}
			]
		},
		{
			"channels":[
				{
					"sampler":0,
					"target":{
						"node":0,
						"path":"translation"
					}
				},
				{
					"sampler":1,
					"target":{
						"node":0,
						"path":"rotation"
					}
				},
				{
					"sampler":2,
					"target":{
						"node":0,
						"path":"scale"
					}
				}
			],
			"name":"AW101_backrotor|Take 001|BaseLayer",
			"samplers":[
				{
					"input":21,
					"interpolation":"LINEAR",
					"output":22
				},
				{
					"input":23,
					"interpolation":"LINEAR",
					"output":24
				},
				{
					"input":21,
					"interpolation":"STEP",
					"output":25
				}
			]
		},
		{
			"channels":[
				{
					"sampler":0,
					"target":{
						"node":1,
						"path":"translation"
					}
				},
				{
					"sampler":1,
					"target":{
						"node":1,
						"path":"rotation"
					}
				},
				{
					"sampler":2,
					"target":{
						"node":1,
						"path":"scale"
					}
				}
			],
			"name":"AW101_propellar|Take 001|BaseLayer",
			"samplers":[
				{
					"input":21,
					"interpolation":"LINEAR",
					"output":26
				},
				{
					"input":23,
					"interpolation":"LINEAR",
					"output":27
				},
				{
					"input":21,
					"interpolation":"STEP",
					"output":28
				}
			]
		}
	],
	"materials":[
		{
			"alphaMode":"BLEND",
			"doubleSided":true,
			"extensions":{
				"KHR_materials_specular":{
					"specularColorFactor":[
						2.0,
						2.0,
						2.0
					]
				}
			},
			"name":"AW101-AW101_sha",
			"pbrMetallicRoughness":{
				"baseColorTexture":{
					"index":0
				},
				"roughnessFactor":0.5527863502502441
			}
		},
		{
			"alphaMode":"BLEND",
			"doubleSided":true,
			"extensions":{
				"KHR_materials_specular":{
					"specularColorFactor":[
						2.0,
						2.0,
						2.0
					]
				}
			},
			"name":"AW101-AW101_windows_sha",
			"pbrMetallicRoughness":{
				"baseColorTexture":{
					"index":1
				},
				"roughnessFactor":0.5527863502502441
			}
		}
	],
	"meshes":[
		{
			"name":"Mesh.001",
			"primitives":[
				{
					"attributes":{
						"POSITION":0,
						"NORMAL":1,
						"TEXCOORD_0":2
					},
					"indices":3,
					"material":0
				}
			]
		},
		{
			"name":"Mesh.002",
			"primitives":[
				{
					"attributes":{
						"POSITION":4,
						"NORMAL":5,
						"TEXCOORD_0":6
					},
					"indices":7,
					"material":0
				}
			]
		},
		{
			"name":"Mesh",
			"primitives":[
				{
					"attributes":{
						"POSITION":8,
						"NORMAL":9,
						"TEXCOORD_0":10
					},
					"indices":11,
					"material":0
				},
				{
					"attributes":{
						"POSITION":12,
						"NORMAL":13,
						"TEXCOORD_0":14
					},
					"indices":15,
					"material":1
				}
			]
		}
	],
	"textures":[
		{
			"sampler":0,
			"source":0
		},
		{
			"sampler":0,
			"source":0
		}
	],
	"images":[
		{
			"mimeType":"image/png",
			"name":"AW101",
			"uri":"AW101.png"
		}
	],
	"accessors":[
		{
			"bufferView":0,
			"componentType":5126,
			"count":192,
			"max":[
				0.029043802991509438,
				1.8678089380264282,
				1.8678083419799805
			],
			"min":[
				-0.029043812304735184,
				-1.8678086996078491,
				-1.86780846118927
			],
			"type":"VEC3"
		},
		{
			"bufferView":1,
			"componentType":5126,
			"count":192,
			"type":"VEC3"
		},
		{
			"bufferView":2,
			"componentType":5126,
			"count":192,
			"type":"VEC2"
		},
		{
			"bufferView":3,
			"componentType":5123,
			"count":336,
			"type":"SCALAR"
		},
		{
			"bufferView":4,
			"componentType":5126,
			"count":630,
			"max":[
				8.99631118774414,
				7.746783256530762,
				0.2886675000190735
			],
			"min":[
				-8.996216773986816,
				-9.687207221984863,
				-0.2886675298213959
			],
			"type":"VEC3"
		},
		{
			"bufferView":5,
			"componentType":5126,
			"count":630,
			"type":"VEC3"
		},
		{
			"bufferView":6,
			"componentType":5126,
			"count":630,
			"type":"VEC2"
		},
		{
			"bufferView":7,
			"componentType":5123,
			"count":1380,
			"type":"SCALAR"
		},
		{
			"bufferView":8,
			"componentType":5126,
			"count":4286,
			"max":[
				2.5835318565368652,
				10.24984073638916,
				2.899902582168579
			],
			"min":[
				-2.5835318565368652,
				-10.24984073638916,
				-2.899902820587158
			],
			"type":"VEC3"
		},
		{
			"bufferView":9,
			"componentType":5126,
			"count":4286,
			"type":"VEC3"
		},
		{
			"bufferView":10,
			"componentType":5126,
			"count":4286,
			"type":"VEC2"
		},
		{
			"bufferView":11,
			"componentType":5123,
			"count":12426,
			"type":"SCALAR"
		},
		{
			"bufferView":12,
			"componentType":5126,
			"count":40,
			"max":[
				1.757577896118164,
				9.048894882202148,
				0.9629294276237488
			],
			"min":[
				-1.5719413757324219,
				-0.5654483437538147,
				-0.5838088393211365
			],
			"type":"VEC3"
		},
		{
			"bufferView":13,
			"componentType":5126,
			"count":40,
			"type":"VEC3"
		},
		{
			"bufferView":14,
			"componentType":5126,
			"count":40,
			"type":"VEC2"
		},
		{
			"bufferView":15,
			"componentType":5123,
			"count":72,
			"type":"SCALAR"
		},
		{
			"bufferView":16,
			"componentType":5126,
			"count":193,
			"max":[
				8
			],
			"min":[
				0
			],
			"type":"SCALAR"
		},
		{
			"bufferView":17,
			"componentType":5126,
			"count":193,
			"type":"VEC3"
		},
		{
			"bufferView":18,
			"componentType":5126,
			"count":193,
			"type":"VEC4"
		},
		{
			"bufferView":19,
			"componentType":5126,
			"count":2,
			"max":[
				8
			],
			"min":[
				0
			],
			"type":"SCALAR"
		},
		{
			"bufferView":20,
			"componentType":5126,
			"count":2,
			"type":"VEC3"
		},
		{
			"bufferView":21,
			"componentType":5126,
			"count":2,
			"max":[
				8.708333333333334
			],
			"min":[
				0.041666666666666664
			],
			"type":"SCALAR"
		},
		{
			"bufferView":22,
			"componentType":5126,
			"count":2,
			"type":"VEC3"
		},
		{
			"bufferView":23,
			"componentType":5126,
			"count":209,
			"max":[
				8.708333333333334
			],
			"min":[
				0.041666666666666664
			],
			"type":"SCALAR"
		},
		{
			"bufferView":24,
			"componentType":5126,
			"count":209,
			"type":"VEC4"
		},
		{
			"bufferView":25,
			"componentType":5126,
			"count":2,
			"type":"VEC3"
		},
		{
			"bufferView":26,
			"componentType":5126,
			"count":2,
			"type":"VEC3"
		},
		{
			"bufferView":27,
			"componentType":5126,
			"count":209,
			"type":"VEC4"
		},
		{
			"bufferView":28,
			"componentType":5126,
			"count":2,
			"type":"VEC3"
		}
	],
	"bufferViews":[
		{
			"buffer":0,
			"byteLength":2304,
			"byteOffset":0,
			"target":34962
		},
		{
			"buffer":0,
			"byteLength":2304,
			"byteOffset":2304,
			"target":34962
		},
		{
			"buffer":0,
			"byteLength":1536,
			"byteOffset":4608,
			"target":34962
		},
		{
			"buffer":0,
			"byteLength":672,
			"byteOffset":6144,
			"target":34963
		},
		{
			"buffer":0,
			"byteLength":7560,
			"byteOffset":6816,
			"target":34962
		},
		{
			"buffer":0,
			"byteLength":7560,
			"byteOffset":14376,
			"target":34962
		},
		{
			"buffer":0,
			"byteLength":5040,
			"byteOffset":21936,
			"target":34962
		},
		{
			"buffer":0,
			"byteLength":2760,
			"byteOffset":26976,
			"target":34963
		},
		{
			"buffer":0,
			"byteLength":51432,
			"byteOffset":29736,
			"target":34962
		},
		{
			"buffer":0,
			"byteLength":51432,
			"byteOffset":81168,
			"target":34962
		},
		{
			"buffer":0,
			"byteLength":34288,
			"byteOffset":132600,
			"target":34962
		},
		{
			"buffer":0,
			"byteLength":24852,
			"byteOffset":166888,
			"target":34963
		},
		{
			"buffer":0,
			"byteLength":480,
			"byteOffset":191740,
			"target":34962
		},
		{
			"buffer":0,
			"byteLength":480,
			"byteOffset":192220,
			"target":34962
		},
		{
			"buffer":0,
			"byteLength":320,
			"byteOffset":192700,
			"target":34962
		},
		{
			"buffer":0,
			"byteLength":144,
			"byteOffset":193020,
			"target":34963
		},
		{
			"buffer":0,
			"byteLength":772,
			"byteOffset":193164
		},
		{
			"buffer":0,
			"byteLength":2316,
			"byteOffset":193936
		},
		{
			"buffer":0,
			"byteLength":3088,
			"byteOffset":196252
		},
		{
			"buffer":0,
			"byteLength":8,
			"byteOffset":199340
		},
		{
			"buffer":0,
			"byteLength":24,
			"byteOffset":199348
		},
		{
			"buffer":0,
			"byteLength":8,
			"byteOffset":199372
		},
		{
			"buffer":0,
			"byteLength":24,
			"byteOffset":199380
		},
		{
			"buffer":0,
			"byteLength":836,
			"byteOffset":199404
		},
		{
			"buffer":0,
			"byteLength":3344,
			"byteOffset":200240
		},
		{
			"buffer":0,
			"byteLength":24,
			"byteOffset":203584
		},
		{
			"buffer":0,
			"byteLength":24,
			"byteOffset":203608
		},
		{
			"buffer":0,
			"byteLength":3344,
			"byteOffset":203632
		},
		{
			"buffer":0,
			"byteLength":24,
			"byteOffset":206976
		}
	],
	"samplers":[
		{
			"magFilter":9729,
			"minFilter":9987
		}
	],
	"buffers":[
		{
			"byteLength":207000,
			"uri":"Helicopter.bin"
		}
	]
}
