{
	"asset":{
		"generator":"Khronos glTF Blender I/O v4.2.70",
		"version":"2.0"
	},
	"scene":0,
	"scenes":[
		{
			"name":"Scene",
			"nodes":[
				0,
				1,
				2,
				3,
				4
			]
		}
	],
	"nodes":[
		{
			"mesh":0,
			"name":"Saturn.001",
			"rotation":[
				0,
				0.7287120223045349,
				0,
				0.6848202347755432
			],
			"scale":[
				-0.0030000002589076757,
				-0.003000000026077032,
				-0.0030000002589076757
			],
			"translation":[
				0.9397637844085693,
				0,
				14.936739921569824
			]
		},
		{
			"mesh":1,
			"name":"RingsTop",
			"rotation":[
				0.011826682835817337,
				0.4599582850933075,
				0.3808770775794983,
				0.8020169138908386
			],
			"scale":[
				-0.0029999997932463884,
				-0.0029999997932463884,
				-0.003000000026077032
			],
			"translation":[
				0.9397637844085693,
				0,
				14.936739921569824
			]
		},
		{
			"mesh":2,
			"name":"RingsBottom",
			"rotation":[
				0.011684301309287548,
				0.4643234610557556,
				0.3762921690940857,
				0.8016679286956787
			],
			"scale":[
				-0.0030000002589076757,
				-0.0030000002589076757,
				-0.0030000002589076757
			],
			"translation":[
				0.9397637844085693,
				0,
				14.936739921569824
			]
		},
		{
			"mesh":3,
			"name":"Jupiter",
			"rotation":[
				0,
				0.031035881489515305,
				0,
				0.9995182752609253
			],
			"scale":[
				0.006000000052154064,
				0.006000000052154064,
				0.006000000052154064
			],
			"translation":[
				-0.9397581815719604,
				0,
				-14.93674087524414
			]
		},
		{
			"name":"B\u00e9zierCircle",
			"scale":[
				15,
				15,
				15
			]
		}
	],
	"animations":[
		{
			"channels":[
				{
					"sampler":0,
					"target":{
						"node":0,
						"path":"translation"
					}
				},
				{
					"sampler":1,
					"target":{
						"node":0,
						"path":"rotation"
					}
				}
			],
			"name":"Saturn.001Action",
			"samplers":[
				{
					"input":15,
					"interpolation":"LINEAR",
					"output":16
				},
				{
					"input":15,
					"interpolation":"LINEAR",
					"output":17
				}
			]
		},
		{
			"channels":[
				{
					"sampler":0,
					"target":{
						"node":1,
						"path":"translation"
					}
				},
				{
					"sampler":1,
					"target":{
						"node":1,
						"path":"rotation"
					}
				}
			],
			"name":"RingsTopAction.001",
			"samplers":[
				{
					"input":15,
					"interpolation":"LINEAR",
					"output":18
				},
				{
					"input":15,
					"interpolation":"LINEAR",
					"output":19
				}
			]
		},
		{
			"channels":[
				{
					"sampler":0,
					"target":{
						"node":2,
						"path":"translation"
					}
				},
				{
					"sampler":1,
					"target":{
						"node":2,
						"path":"rotation"
					}
				}
			],
			"name":"RingsBottomAction.001",
			"samplers":[
				{
					"input":15,
					"interpolation":"LINEAR",
					"output":20
				},
				{
					"input":15,
					"interpolation":"LINEAR",
					"output":21
				}
			]
		},
		{
			"channels":[
				{
					"sampler":0,
					"target":{
						"node":3,
						"path":"translation"
					}
				},
				{
					"sampler":1,
					"target":{
						"node":3,
						"path":"rotation"
					}
				}
			],
			"name":"JupiterAction",
			"samplers":[
				{
					"input":15,
					"interpolation":"LINEAR",
					"output":22
				},
				{
					"input":15,
					"interpolation":"LINEAR",
					"output":23
				}
			]
		}
	],
	"materials":[
		{
			"name":"None.001",
			"pbrMetallicRoughness":{
				"baseColorTexture":{
					"index":0
				},
				"metallicFactor":0.10000000149011612,
				"roughnessFactor":0.699999988079071
			}
		},
		{
			"alphaMode":"BLEND",
			"name":"SaturnRings.001",
			"pbrMetallicRoughness":{
				"baseColorTexture":{
					"index":1
				},
				"metallicFactor":0
			}
		},
		{
			"name":"None.002",
			"pbrMetallicRoughness":{
				"baseColorTexture":{
					"index":2
				},
				"metallicFactor":0,
				"roughnessFactor":0.8999999761581421
			}
		}
	],
	"meshes":[
		{
			"name":"Cube.001",
			"primitives":[
				{
					"attributes":{
						"POSITION":0,
						"NORMAL":1,
						"TEXCOORD_0":2
					},
					"indices":3,
					"material":0
				}
			]
		},
		{
			"name":"Plane.003",
			"primitives":[
				{
					"attributes":{
						"POSITION":4,
						"NORMAL":5,
						"TEXCOORD_0":6
					},
					"indices":7,
					"material":1
				}
			]
		},
		{
			"name":"Plane.004",
			"primitives":[
				{
					"attributes":{
						"POSITION":8,
						"NORMAL":9,
						"TEXCOORD_0":10
					},
					"indices":11,
					"material":1
				}
			]
		},
		{
			"name":"Cube.003",
			"primitives":[
				{
					"attributes":{
						"POSITION":12,
						"NORMAL":13,
						"TEXCOORD_0":14
					},
					"indices":3,
					"material":2
				}
			]
		}
	],
	"textures":[
		{
			"sampler":0,
			"source":0
		},
		{
			"sampler":0,
			"source":1
		},
		{
			"sampler":0,
			"source":2
		}
	],
	"images":[
		{
			"mimeType":"image/png",
			"name":"saturn_diff.jpg",
			"uri":"saturn_diff_jpg.png"
		},
		{
			"mimeType":"image/png",
			"name":"saturn_rings_25sat_outterRings.png",
			"uri":"saturn_rings_25sat_outterRings_png.png"
		},
		{
			"mimeType":"image/png",
			"name":"jupiter_diff",
			"uri":"jupiter_diff.png"
		}
	],
	"accessors":[
		{
			"bufferView":0,
			"componentType":5126,
			"count":1649,
			"max":[
				500,
				451.0190124511719,
				500
			],
			"min":[
				-500,
				-451.0190124511719,
				-500
			],
			"type":"VEC3"
		},
		{
			"bufferView":1,
			"componentType":5126,
			"count":1649,
			"type":"VEC3"
		},
		{
			"bufferView":2,
			"componentType":5126,
			"count":1649,
			"type":"VEC2"
		},
		{
			"bufferView":3,
			"componentType":5123,
			"count":9216,
			"type":"SCALAR"
		},
		{
			"bufferView":4,
			"componentType":5126,
			"count":256,
			"max":[
				1165.4505615234375,
				0,
				1165.4503173828125
			],
			"min":[
				-1165.450439453125,
				0,
				-1165.450439453125
			],
			"type":"VEC3"
		},
		{
			"bufferView":5,
			"componentType":5126,
			"count":256,
			"type":"VEC3"
		},
		{
			"bufferView":6,
			"componentType":5126,
			"count":256,
			"type":"VEC2"
		},
		{
			"bufferView":7,
			"componentType":5123,
			"count":384,
			"type":"SCALAR"
		},
		{
			"bufferView":8,
			"componentType":5126,
			"count":256,
			"max":[
				1165.4505615234375,
				0,
				1165.4503173828125
			],
			"min":[
				-1165.450439453125,
				0,
				-1165.450439453125
			],
			"type":"VEC3"
		},
		{
			"bufferView":9,
			"componentType":5126,
			"count":256,
			"type":"VEC3"
		},
		{
			"bufferView":10,
			"componentType":5126,
			"count":256,
			"type":"VEC2"
		},
		{
			"bufferView":11,
			"componentType":5123,
			"count":384,
			"type":"SCALAR"
		},
		{
			"bufferView":12,
			"componentType":5126,
			"count":1649,
			"max":[
				500,
				467.56298828125,
				500
			],
			"min":[
				-500,
				-467.56298828125,
				-500
			],
			"type":"VEC3"
		},
		{
			"bufferView":13,
			"componentType":5126,
			"count":1649,
			"type":"VEC3"
		},
		{
			"bufferView":14,
			"componentType":5126,
			"count":1649,
			"type":"VEC2"
		},
		{
			"bufferView":15,
			"componentType":5126,
			"count":101,
			"max":[
				4.166666666666667
			],
			"min":[
				0
			],
			"type":"SCALAR"
		},
		{
			"bufferView":16,
			"componentType":5126,
			"count":101,
			"type":"VEC3"
		},
		{
			"bufferView":17,
			"componentType":5126,
			"count":101,
			"type":"VEC4"
		},
		{
			"bufferView":18,
			"componentType":5126,
			"count":101,
			"type":"VEC3"
		},
		{
			"bufferView":19,
			"componentType":5126,
			"count":101,
			"type":"VEC4"
		},
		{
			"bufferView":20,
			"componentType":5126,
			"count":101,
			"type":"VEC3"
		},
		{
			"bufferView":21,
			"componentType":5126,
			"count":101,
			"type":"VEC4"
		},
		{
			"bufferView":22,
			"componentType":5126,
			"count":101,
			"type":"VEC3"
		},
		{
			"bufferView":23,
			"componentType":5126,
			"count":101,
			"type":"VEC4"
		}
	],
	"bufferViews":[
		{
			"buffer":0,
			"byteLength":19788,
			"byteOffset":0,
			"target":34962
		},
		{
			"buffer":0,
			"byteLength":19788,
			"byteOffset":19788,
			"target":34962
		},
		{
			"buffer":0,
			"byteLength":13192,
			"byteOffset":39576,
			"target":34962
		},
		{
			"buffer":0,
			"byteLength":18432,
			"byteOffset":52768,
			"target":34963
		},
		{
			"buffer":0,
			"byteLength":3072,
			"byteOffset":71200,
			"target":34962
		},
		{
			"buffer":0,
			"byteLength":3072,
			"byteOffset":74272,
			"target":34962
		},
		{
			"buffer":0,
			"byteLength":2048,
			"byteOffset":77344,
			"target":34962
		},
		{
			"buffer":0,
			"byteLength":768,
			"byteOffset":79392,
			"target":34963
		},
		{
			"buffer":0,
			"byteLength":3072,
			"byteOffset":80160,
			"target":34962
		},
		{
			"buffer":0,
			"byteLength":3072,
			"byteOffset":83232,
			"target":34962
		},
		{
			"buffer":0,
			"byteLength":2048,
			"byteOffset":86304,
			"target":34962
		},
		{
			"buffer":0,
			"byteLength":768,
			"byteOffset":88352,
			"target":34963
		},
		{
			"buffer":0,
			"byteLength":19788,
			"byteOffset":89120,
			"target":34962
		},
		{
			"buffer":0,
			"byteLength":19788,
			"byteOffset":108908,
			"target":34962
		},
		{
			"buffer":0,
			"byteLength":13192,
			"byteOffset":128696,
			"target":34962
		},
		{
			"buffer":0,
			"byteLength":404,
			"byteOffset":141888
		},
		{
			"buffer":0,
			"byteLength":1212,
			"byteOffset":142292
		},
		{
			"buffer":0,
			"byteLength":1616,
			"byteOffset":143504
		},
		{
			"buffer":0,
			"byteLength":1212,
			"byteOffset":145120
		},
		{
			"buffer":0,
			"byteLength":1616,
			"byteOffset":146332
		},
		{
			"buffer":0,
			"byteLength":1212,
			"byteOffset":147948
		},
		{
			"buffer":0,
			"byteLength":1616,
			"byteOffset":149160
		},
		{
			"buffer":0,
			"byteLength":1212,
			"byteOffset":150776
		},
		{
			"buffer":0,
			"byteLength":1616,
			"byteOffset":151988
		}
	],
	"samplers":[
		{
			"magFilter":9729,
			"minFilter":9987
		}
	],
	"buffers":[
		{
			"byteLength":153604,
			"uri":"Planet.bin"
		}
	]
}
